<svg xmlns="http://www.w3.org/2000/svg" version="1.1" xmlns:xlink="http://www.w3.org/1999/xlink" xmlns:svgjs="http://svgjs.dev/svgjs" width="1440" height="560" preserveAspectRatio="none" viewBox="0 0 1440 560"><g mask="url(&quot;#SvgjsMask1006&quot;)" fill="none"><path d="M280 56.87C242.93 66.14 233.33 104.2 233.33 140C233.33 160.88 253.48 166.58 280 170.23C346.81 179.42 354.65 177.82 420 165.67C435.97 162.7 442.65 154.38 442.65 140C442.65 118.21 441.46 104.3 420 93.33C360.14 62.74 336.26 42.8 280 56.87" stroke="rgba(51, 121, 194, 0.58)" stroke-width="2"></path><path d="M840 101.82C827.86 101.82 820.31 121.88 820.31 140C820.31 153.33 828.55 164.71 840 164.71C854.98 164.71 873.16 154.15 873.16 140C873.16 122.7 854.29 101.82 840 101.82" stroke="rgba(51, 121, 194, 0.58)" stroke-width="2"></path><path d="M1227.23 0C1251.69 8.28 1240.79 47.38 1260 47.38C1283.73 47.38 1281.58 10.67 1313.1 0C1351.58 -13.02 1356.55 0 1400 0C1470 0 1505 -35 1540 0C1575 35 1540 70 1540 140C1540 210 1540 210 1540 280C1540 350 1540 350 1540 420C1540 490 1575 525 1540 560C1505 595 1470 560 1400 560C1330 560 1330 560 1260 560C1190 560 1190 560 1120 560C1053.62 560 1032.99 582.87 987.24 560C962.99 547.87 986.29 490 980 490C973.54 490 987.83 546.95 961.74 560C917.83 581.95 900.87 560 840 560C793.34 560 777.68 583.85 746.67 560C707.68 530.01 742.33 481.29 700 452.31C648.99 417.38 605.55 404.42 560 432.17C517.17 458.27 562.66 524.02 523.25 560C492.66 587.93 471.63 560 420 560C350 560 350 560 280 560C247.34 560 214.67 572.35 214.67 560C214.67 543.53 250.99 534.53 280 502.35C314.09 464.53 340.87 450.9 340.87 420C340.87 400.87 310.65 410.34 280 402.28C210.22 383.93 203.17 398.39 140 367.17C79.45 337.25 84.21 325.75 32.56 280C14.21 263.74 5.25 265.75 0 243.16C-11.03 195.75 0 191.58 0 140C0 70 -35 35 0 0C35 -35 70 0 140 0C210 0 210 0 280 0C350 0 350 0 420 0C490 0 490 0 560 0C630 0 630 0 700 0C770 0 770 0 840 0C910 0 910 0 980 0C1050 0 1050 0 1120 0C1173.61 0 1181.69 -15.41 1227.23 0" stroke="rgba(51, 121, 194, 0.58)" stroke-width="2"></path><path d="M1400 122.93C1391.78 122.93 1391.07 130.33 1385.42 140C1345.14 208.87 1304.2 214.96 1308.13 280C1311.49 335.65 1358.48 381.38 1400 381.38C1436.37 381.38 1458.82 334.41 1463.91 280C1470.11 213.72 1449.34 205.78 1422.58 140C1417.39 127.24 1410.36 122.93 1400 122.93" stroke="rgba(51, 121, 194, 0.58)" stroke-width="2"></path><path d="M0 466.67C37.44 466.67 120.69 533.95 120.69 560C120.69 580.61 34.03 586.32 0 560C-26.32 539.65 -22.9 466.67 0 466.67" stroke="rgba(51, 121, 194, 0.58)" stroke-width="2"></path><path d="M71.79 0C113.77 24.92 108.83 39.56 140 83.13C158.9 109.56 148.39 118.67 171.93 140C218.39 182.11 220.73 189.93 280 210C344.77 231.93 360.4 243.49 420 224C467.46 208.49 490.05 187.81 494.12 140C499.59 75.81 420.83 38.81 439.09 0C453.77 -31.19 499.55 0 560 0C595 0 599.1 -11.98 630 0C669.1 15.16 669.43 22.74 700 54.29C737.25 92.74 732.38 97.48 765.63 140C802.38 187 799.43 189.99 840 233.33C864.95 259.99 896.67 254.77 896.67 280C896.67 308.62 876.68 330.04 840 341.03C778.34 359.51 769.35 332.68 700 338.95C629.35 345.33 630.61 357.66 560 366.33C490.61 374.85 489.83 375.42 420 373.33C349.83 371.24 347.54 375.39 280 357.97C207.54 339.29 207.94 333.03 140 301.13C124.92 294.05 125.37 292.24 113.95 280C55.37 217.2 53.54 216.83 0 151.05C-3.44 146.83 0 145.52 0 140C0 70 -23.73 46.27 0 0C12.17 -23.73 43.77 -16.64 71.79 0" stroke="rgba(51, 121, 194, 0.58)" stroke-width="2"></path><path d="M965.26 140C935.12 71.41 904.97 47.78 910 0C912.34 -22.22 945 0 980 0C1050 0 1050 0 1120 0C1155 0 1164.62 -18.35 1190 0C1234.62 32.26 1219.97 55.49 1260 101.23C1281.22 125.49 1312.5 116.02 1312.5 140C1312.5 174.78 1288.19 180.83 1260 218.75C1236.15 250.83 1208.42 247.61 1208.42 280C1208.42 319.07 1231.4 322.95 1260 361.67C1283.11 392.95 1311.85 392.06 1311.85 420C1311.85 445.36 1281.19 440.33 1260 468.28C1228.12 510.33 1244.51 534.58 1205.71 560C1174.51 580.44 1162.86 560 1120 560C1083.8 560 1063.8 583.64 1047.59 560C1015.8 513.64 1023.04 489.83 1024 420C1024.96 349.83 1062.52 345.73 1051.43 280C1040.52 215.38 1016.72 218.97 980 159.31C973.64 148.97 970.12 151.07 965.26 140" stroke="rgba(51, 121, 194, 0.58)" stroke-width="2"></path><path d="M1400 37.56C1383.01 37.56 1373.45 11.91 1373.45 0C1373.45 -6.87 1386.72 0 1400 0C1429.61 0 1459.23 -8.6 1459.23 0C1459.23 10.18 1425.9 37.56 1400 37.56" stroke="rgba(51, 121, 194, 0.58)" stroke-width="2"></path><path d="M1535.48 140C1535.48 135.11 1538.8 131.25 1540 131.25C1541.06 131.25 1540 135.63 1540 140C1540 210 1541.13 280 1540 280C1538.87 280 1535.48 209.49 1535.48 140" stroke="rgba(51, 121, 194, 0.58)" stroke-width="2"></path><path d="M1459.5 420C1506.07 355.02 1518.44 280 1540 280C1558.69 280 1540 350 1540 420C1540 490 1575 525 1540 560C1505 595 1470 560 1400 560C1359.55 560 1319.11 577.29 1319.11 560C1319.11 534.97 1358.56 516.67 1400 475.35C1428.76 446.67 1436.07 452.7 1459.5 420" stroke="rgba(51, 121, 194, 0.58)" stroke-width="2"></path><path d="M0 513.33C18.72 513.33 60.34 546.97 60.34 560C60.34 570.31 17.01 573.16 0 560C-13.16 549.82 -11.45 513.33 0 513.33" stroke="rgba(51, 121, 194, 0.58)" stroke-width="2"></path><path d="M328.46 560C328.46 528.88 379.48 456.52 420 456.52C455 456.52 479.5 525.47 479.5 560C479.5 577.21 449.75 560 420 560C374.23 560 328.46 580.62 328.46 560" stroke="rgba(51, 121, 194, 0.58)" stroke-width="2"></path><path d="M545.59 140C564.82 107.94 534.18 67.01 560 64.62C611.39 59.86 632.48 91.99 700 125.71C707.95 129.68 710.94 131.64 710.94 140C710.94 163.78 711.39 167.52 700 190C675.92 237.52 679.25 246.92 640 280C609.25 305.92 600.86 308 560 308C496.25 308 433.81 315.45 430.77 280C426.61 231.45 500.21 215.63 545.59 140" stroke="rgba(51, 121, 194, 0.58)" stroke-width="2"></path><path d="M1059.46 140C1043.01 73.22 1032.56 47.37 1053.04 0C1062.83 -22.63 1086.52 0 1120 0C1136.39 0 1144.24 -12.27 1152.77 0C1192.93 57.73 1225.33 74.12 1217.39 140C1208.95 210 1161.89 271.76 1120 271.76C1082.93 271.76 1076.49 209.1 1059.46 140" stroke="rgba(51, 121, 194, 0.58)" stroke-width="2"></path><path d="M206.11 280C206.11 264.16 241.81 249.77 280 249.77C345.25 249.77 413 264.07 413 280C413 296.02 344.98 313.67 280 313.67C241.54 313.67 206.11 296.11 206.11 280" stroke="rgba(51, 121, 194, 0.58)" stroke-width="2"></path><path d="M1074 420C1076.99 351.99 1089.15 285.83 1120 285.83C1154.52 285.83 1201.15 351.03 1204.74 420C1208.29 488.12 1173.12 495.85 1134.29 560C1130.75 565.85 1127.14 560 1120 560C1113.97 560 1109.71 565.41 1107.93 560C1086.71 495.41 1070.96 489.07 1074 420" stroke="rgba(51, 121, 194, 0.58)" stroke-width="2"></path><path d="M395.77 560C395.77 551.76 409.28 532.61 420 532.61C429.27 532.61 435.75 550.86 435.75 560C435.75 564.56 427.88 560 420 560C407.88 560 395.77 565.46 395.77 560" stroke="rgba(51, 121, 194, 0.58)" stroke-width="2"></path><path d="M1396.89 560C1396.89 559.04 1398.32 558.24 1400 556.74C1469.87 494.6 1498.35 431.76 1540 432.73C1568.35 433.39 1573.33 529.7 1540 560C1503.33 593.33 1470 560 1400 560C1398.45 560 1396.89 560.67 1396.89 560" stroke="rgba(51, 121, 194, 0.58)" stroke-width="2"></path></g><defs><mask id="SvgjsMask1006"><rect width="1440" height="560" fill="#ffffff"></rect></mask></defs></svg>